<?xml version="1.0" encoding="iso-8859-1"?>
<!-- Uploaded to: SVG Repo, www.svgrepo.com, Generator: SVG Repo Mixer Tools -->
<svg height="800px" width="800px" version="1.1" id="Layer_1" xmlns="http://www.w3.org/2000/svg" xmlns:xlink="http://www.w3.org/1999/xlink" 
	 viewBox="0 0 512 512" xml:space="preserve">
<path style="fill:#FA6E51;" d="M512,256.006C512,397.402,397.394,512.004,256.004,512C114.606,512.004,0,397.402,0,256.006
	C-0.007,114.61,114.606,0,256.004,0C397.394,0,512,114.614,512,256.006z"/>
<path style="fill:#E8573F;" d="M512,256.005c0-13.015-0.987-25.798-2.861-38.291c-0.14-0.138-0.272-0.282-0.417-0.417
	c-0.367-0.394-0.742-0.769-1.136-1.136c-0.368-0.395-87.19-87.217-87.585-87.585c-4.134-4.437-9.981-7.258-16.511-7.258H108.51
	c-12.481,0-22.633,10.148-22.633,22.629v224.103c0,6.529,2.82,12.373,7.258,16.507c0.368,0.395,0.743,0.771,1.139,1.139
	c0.367,0.395,122.45,122.476,122.845,122.843c0.194,0.208,0.399,0.4,0.599,0.599c12.492,1.873,25.274,2.86,38.288,2.86
	C397.394,512.004,512,397.401,512,256.005z"/>
<path style="fill:#F4F6F9;" d="M403.49,121.319H108.51c-12.481,0-22.633,10.148-22.633,22.629v224.104
	c0,12.481,10.151,22.629,22.633,22.629h294.981c12.481,0,22.633-10.148,22.633-22.629V143.949
	C426.123,131.468,415.971,121.319,403.49,121.319z M100.053,145.605l112.945,114.859L100.053,366.766V145.605z M265.76,274.061
	c-5.466,5.302-14.038,5.302-19.399,0.117L109.995,135.497h292.011L265.76,274.061z M222.945,270.579l13.429,13.658
	c5.486,5.316,12.523,7.982,19.58,7.982c7.095,0,14.211-2.692,19.791-8.099l10.074-10.244l115.459,102.63H110.4L222.945,270.579z
	 M295.771,263.754l116.176-118.148v221.415L295.771,263.754z"/>
</svg>